<?xml version="1.0" encoding="UTF-8" standalone="no"?>
<svg
   xmlns:dc="http://purl.org/dc/elements/1.1/"
   xmlns:cc="http://creativecommons.org/ns#"
   xmlns:rdf="http://www.w3.org/1999/02/22-rdf-syntax-ns#"
   xmlns:svg="http://www.w3.org/2000/svg"
   xmlns="http://www.w3.org/2000/svg"
   xmlns:sodipodi="http://sodipodi.sourceforge.net/DTD/sodipodi-0.dtd"
   xmlns:inkscape="http://www.inkscape.org/namespaces/inkscape"
   version="1.1"
   id="svg10"
   width="238.56"
   height="142.56"
   viewBox="0 0 238.56 142.56"
   sodipodi:docname="Ring-wedding-bands-clip-art-wedding-band-clip-art-and-wedding-bands.svg"
   inkscape:version="1.0.1 (3bc2e813f5, 2020-09-07)">
  <metadata
     id="metadata16">
    <rdf:RDF>
      <cc:Work
         rdf:about="">
        <dc:format>image/svg+xml</dc:format>
        <dc:type
           rdf:resource="http://purl.org/dc/dcmitype/StillImage" />
        <dc:title></dc:title>
      </cc:Work>
    </rdf:RDF>
  </metadata>
  <defs
     id="defs14" />
  <sodipodi:namedview
     pagecolor="#ffffff"
     bordercolor="#666666"
     borderopacity="1"
     objecttolerance="10"
     gridtolerance="10"
     guidetolerance="10"
     inkscape:pageopacity="0"
     inkscape:pageshadow="2"
     inkscape:window-width="1920"
     inkscape:window-height="1137"
     id="namedview12"
     showgrid="false"
     inkscape:zoom="4.9924548"
     inkscape:cx="85.128463"
     inkscape:cy="71.279999"
     inkscape:window-x="1912"
     inkscape:window-y="-8"
     inkscape:window-maximized="1"
     inkscape:current-layer="g18" />
  <g
     inkscape:groupmode="layer"
     inkscape:label="Image"
     id="g18">
    <path
       style="fill:#010101;stroke:none;stroke-width:0.24"
       d="m 84.321209,7.0692826 c -22.58736,1.623336 -42.16464,6.5682244 -58.8,22.9289044 -4.30932,4.23816 -8.375976,8.14104 -11.018376,13.68 -4.9074235,10.28688 -6.1260715,22.34928 -5.8006555,33.6 0.269088,9.303116 1.3579915,18.937436 6.6105115,26.879993 4.761264,7.19976 11.76972,12.5892 19.08852,16.98888 17.96256,10.79784 40.02144,14.4744 60.72,12.91704 8.806081,-0.66264 17.541361,-2.19096 25.920001,-5.034 4.45224,-1.5108 9.33336,-4.91616 13.92,-5.5848 2.44008,-0.35568 5.2296,0.33024 7.68,0.5196 4.28592,0.3312 8.66184,0.4584 12.96,0.33408 21.0192,-0.60792 41.36208,-4.1028 58.32,-17.38152 3.80256,-2.97768 7.96392,-5.98608 10.78152,-9.961437 4.43472,-6.25704 6.4152,-14.04888 7.12488,-21.597836 0.78912,-8.39664 0.63456,-18.22656 -3.26208,-25.92 -3.37392,-6.66192 -9.57912,-11.54832 -15.84432,-15.35064 -13.37304,-8.11656 -29.16336,-12.060768 -44.64,-13.38012 -6.43536,-0.548616 -12.75792,-0.463584 -19.2,-0.297264 -2.70312,0.06977 -6.00072,1.033128 -8.64,0.37608 -2.15184,-0.53568 -4.10784,-2.336328 -6,-3.44628 -3.31344,-1.943712 -6.73704,-3.56688 -10.32,-4.947816 C 111.57225,7.6327546 97.485689,6.1231786 84.321209,7.0692826 M 134.48121,22.078187 h -1.2 v 0.24 l 3.36,-0.24 c 0.7404,2.31288 2.9988,3.66576 4.8,5.142 3.16632,2.59488 6.26832,5.316 9.07728,8.298 10.28832,10.92336 11.44464,26.96832 10.80624,41.28 -0.15024,3.37056 -0.52992,6.761036 -1.13328,10.079996 -0.21288,1.1724 -0.32976,3.01176 -1.34232,3.81072 -0.90264,0.71208 -2.41416,0.5064 -3.48792,0.50928 2.03448,-10.835516 -3.43512,-21.467996 -11.28888,-28.674476 -2.76648,-2.53848 -6.04296,-6.09984 -10.07112,-5.64552 l 0.72,-1.44 c -14.35152,-7.13856 -28.43808,-11.99904 -44.640001,-12.48 1.78392,-1.3956 3.62664,-0.9972 5.76,-0.96456 4.513441,0.06936 9.004801,0.67488 13.440001,1.4904 19.79136,3.63936 39.53136,14.31864 49.68,32.35416 h 0.24 c 1.92384,-9.40272 0.7152,-19.61832 -2.70384,-28.56 -1.34664,-3.52176 -2.9316,-7.19976 -5.69616,-9.84 -0.37776,2.22816 -0.3948,5.08008 -2.30208,6.6324 -2.0736,1.68768 -5.19192,0.88368 -7.53792,0.3408 -6.07176,-1.40544 -11.95368,-3.5628 -18,-5.08248 -20.49168,-5.1504 -44.344561,-8.29032 -65.040001,-2.61984 -7.68072,2.10456 -15.02664,5.37768 -21.6,9.8928 -1.35864,0.93312 -5.68896,5.21328 -7.37808,4.39944 -1.34184,-0.64656 -1.20984,-3.69408 -1.24032,-4.92312 -0.126,-5.0808 1.0356,-10.02864 3.0984,-14.64 -12.143016,8.4852 -19.327584,27.82728 -12.72,41.52 h 0.48 c 3.694056,-6.84336 9.57072,-14.12616 16.08,-18.4152 4.55928,-3.00432 10.1964,-4.64256 15.36,-6.29568 12.92376,-4.1376 26.74224,-6.4596 40.32,-6.48912 -2.29872,1.88928 -5.13216,1.35312 -7.92,1.47648 -4.9776,0.22008 -9.97536,0.66672 -14.88,1.56192 -15.96288,2.91384 -32.77392,9.40872 -43.218888,22.4016 -2.225136,2.76792 -4.115928,5.81016 -5.42376,9.12 -6.890976,17.439356 5.476608,33.686633 20.082648,42.162953 19.77888,11.478 44.45256,14.02896 66.720001,10.04208 4.70112,-0.84168 9.39936,-2.0436 13.92,-3.58704 2.92392,-0.9984 5.80368,-2.60952 8.88,-3.018 -3.54672,2.27112 -7.98504,3.53352 -12,4.71168 -10.0596,2.95248 -20.494321,4.17264 -30.960001,4.16832 -12.20496,-0.005 -24.57,-2.1744 -36,-6.46896 -11.82864,-4.44432 -24.13728,-11.568 -31.236384,-22.33104 -3.289944,-4.987917 -4.677888,-10.694637 -5.419704,-16.559997 -1.801224,-14.241596 -1.031952,-32.804156 7.678176,-44.879996 2.351928,-3.26088 5.439432,-5.92008 8.337912,-8.67408 19.06872,-18.119208 43.84296,-22.4001844 69.36,-21.0918 11.760241,0.603 27.058561,3.315216 36.240001,11.28588 m 71.76,37.92 c -9.12744,-3.9264 -17.74416,-7.56384 -27.6,-9.3972 -3.47832,-0.64704 -7.03152,-1.13784 -10.56,-1.40208 -1.54008,-0.11544 -3.93888,0.14808 -5.25528,-0.76776 -2.15208,-1.49712 -3.162,-6.3288 -4.53912,-8.59296 -2.8836,-4.74024 -7.02312,-8.11224 -10.6056,-12.24 15.43728,-2.43744 33.57864,0.85512 48,6.40656 3.58152,1.37856 7.03368,3.03816 10.32,5.02368 1.28832,0.77832 3.06024,1.64136 3.73944,3.06648 0.71808,1.50624 -0.0696,3.64776 -0.38112,5.18328 -0.86544,4.266 -1.74312,8.58528 -3.11832,12.72 m -175.440001,-28.8 0.24,0.24 -0.24,-0.24 m 174.480001,2.88 c 7.11456,3.91104 14.66808,8.26584 19.06512,15.36 2.24592,3.62352 3.15216,7.82664 3.726,12 1.4844,10.7964 0.2088,23.967356 -6.16272,33.119276 -3.60216,5.17416 -9.76656,9.443997 -14.9484,12.945597 -14.20008,9.59592 -31.19256,12.3684 -48,13.00152 -15.22296,0.57336 -30.77352,-0.606 -44.88,-6.8292 -8.42664,-3.71736 -19.533601,-10.06392 -24.665761,-17.917917 -4.75224,-7.27296 -5.94288,-17.163116 -5.80536,-25.679276 0.0984,-6.0864 0.93648,-12.74784 3.6984,-18.24 1.17864,-2.3436 2.75568,-5.05656 5.65272,-5.04 -1.85088,3.75048 -3.74448,7.24032 -4.00608,11.52 -0.88128,14.4096 13.950721,23.752796 25.366081,28.787996 26.72232,11.78688 62.65992,10.6884 88.8,-2.01432 12.02256,-5.842316 25.15392,-18.131276 19.71624,-32.773676 -0.90552,-2.43816 -2.2656,-4.67568 -3.86376,-6.71952 -3.77904,-4.83264 -8.74272,-8.15688 -13.93248,-11.28048 l 0.24,-0.24 m -119.280001,12.72 c -8.2668,15.89952 -6.85824,32.5464 -0.96,48.959996 -16.28208,-0.48336 -32.94696,-3.88704 -46.8,-12.81936 -3.4236,-2.207516 -6.74568,-4.769036 -9.45768,-7.824236 -0.90336,-1.0176 -2.33448,-2.3808 -2.38872,-3.8364 -0.05832,-1.56696 1.56408,-3.03408 2.54112,-4.0788 2.75688,-2.9472 5.9316,-5.53296 9.30528,-7.74288 13.8816,-9.09264 31.36248,-12.65688 47.76,-12.65832 m 36.480001,6.48 v 0.24 l -15.84,6.48 -2.64,-12 18.48,5.28 m 40.56,37.919996 c 1.37376,-8.26128 2.2608,-16.318556 1.88352,-24.719996 -0.21072,-4.69032 -1.2528,-9.26088 -1.64352,-13.92 13.76424,0.08256 28.78656,3.71256 40.8,10.46712 2.99256,1.68264 5.88144,3.58248 8.39016,5.94 0.85032,0.79896 2.19,1.94424 1.91256,3.264 -0.26928,1.28112 -1.69128,2.28432 -2.6244,3.0828 -2.58168,2.20896 -5.41368,4.04712 -8.39832,5.663036 -12.72912,6.89112 -26.28432,8.31648 -40.32,10.22304 M 97.761209,71.998187 c 5.377681,-6.60888 13.677841,-10.87416 21.600001,-13.66608 2.4216,-0.85344 5.54568,-2.39832 8.16,-2.15304 3.69984,0.3468 7.73256,3.7272 10.56,5.9016 2.43336,1.87128 7.92384,5.59344 8.18736,8.95752 0.27792,3.54672 -6.44376,8.03832 -8.90736,9.878156 -2.93544,2.19216 -7.27296,5.73528 -11.04,6.12744 -2.58696,0.26952 -5.78568,-1.33104 -8.16,-2.22792 -7.68936,-2.90496 -14.53728,-7.041116 -20.400001,-12.817676 m 128.400001,-6.96 c -0.24456,4.36872 -1.10424,8.79168 -2.42688,12.96 -7.46352,23.521913 -30.86208,31.534073 -53.01312,34.947113 -9.92304,1.5288 -19.75944,2.18328 -29.76,1.07808 -6.22512,-0.68808 -12.30336,-2.03664 -18.24,-4.026 C 104.05209,103.74202 87.434969,88.638103 86.241209,67.918187 h -0.24 c -0.40704,4.72752 -1.13088,9.95328 -0.1032,14.639996 2.9136,13.29024 14.350321,23.159517 26.023201,28.979037 7.96008,3.9684 16.69056,5.7324 25.44,6.9864 19.24704,2.7588 38.99784,1.70352 57.12,-5.81928 11.53608,-4.78872 24.3132,-11.79072 29.346,-23.906157 2.0508,-4.9368 2.574,-10.067516 2.574,-15.359996 0,-2.75976 0.27024,-5.67792 -0.24,-8.4 m -87.6,19.679996 1.68,5.52 -8.16,-1.68 6.48,-3.84 m -17.04,35.519997 v 0.24 c -23.260081,7.72344 -49.261441,8.8896 -72.240001,-0.79776 -5.46864,-2.30568 -10.70784,-5.21736 -15.36,-8.91384 -1.61952,-1.28688 -4.06008,-2.85 -4.69272,-4.932 -0.55224,-1.81728 0.34872,-4.20888 0.7476,-5.996397 1.12728,-5.05152 2.67576,-10.0116 4.42512,-14.88 4.0248,1.86312 7.71312,4.4028 11.76,6.27264 5.95512,2.75184 12.31008,4.58664 18.72,5.93136 4.74024,0.99456 9.57216,1.548 14.4,1.87944 2.40216,0.16488 5.562,-0.2424 7.824,0.61248 1.62624,0.614397 2.87616,2.284317 4.17984,3.379437 2.38728,2.00592 4.91904,3.87864 7.43616,5.71776 6.966241,5.08944 14.562001,8.93376 22.800001,11.48688 z"
       id="path40"
       inkscape:export-xdpi="51.529999"
       inkscape:export-ydpi="51.529999" />
  </g>
</svg>
